<svg width="14" height="13" viewBox="0 0 14 13" fill="none" xmlns="http://www.w3.org/2000/svg">
<path d="M6.9376 8.74989C7.40173 8.74989 7.84685 8.56552 8.17504 8.23733C8.50322 7.90914 8.6876 7.46402 8.6876 6.99989C8.6876 6.94864 8.68526 6.89786 8.68088 6.8477L6.78541 8.74317C6.83557 8.74755 6.88619 8.74989 6.9376 8.74989ZM12.7301 1.58676L12.0626 0.919883C12.0392 0.896459 12.0074 0.883301 11.9742 0.883301C11.9411 0.883301 11.9093 0.896459 11.8859 0.919883L10.1778 2.62848C9.23546 2.14692 8.17624 1.90613 7.0001 1.90613C3.99697 1.90613 1.75634 3.4702 0.278215 6.59833C0.218802 6.72413 0.187988 6.86154 0.187988 7.00067C0.187988 7.1398 0.218802 7.27721 0.278215 7.40301C0.868841 8.64708 1.58004 9.64421 2.41181 10.3944L0.758841 12.0468C0.735416 12.0702 0.722258 12.102 0.722258 12.1351C0.722258 12.1683 0.735416 12.2 0.758841 12.2235L1.42587 12.8905C1.44931 12.9139 1.48109 12.9271 1.51423 12.9271C1.54737 12.9271 1.57915 12.9139 1.60259 12.8905L12.7301 1.76363C12.7417 1.75202 12.7509 1.73824 12.7572 1.72306C12.7635 1.70789 12.7668 1.69162 12.7668 1.6752C12.7668 1.65877 12.7635 1.6425 12.7572 1.62733C12.7509 1.61215 12.7417 1.59837 12.7301 1.58676ZM4.18759 6.99989C4.18755 6.5249 4.31054 6.05799 4.54458 5.64466C4.77861 5.23133 5.11572 4.88566 5.52305 4.64134C5.93039 4.39701 6.39406 4.26236 6.86891 4.25049C7.34375 4.23863 7.81357 4.34996 8.2326 4.57364L7.47291 5.33332C7.16654 5.23522 6.83906 5.22341 6.52641 5.29918C6.21376 5.37494 5.92802 5.53537 5.70055 5.76284C5.47307 5.99032 5.31265 6.27605 5.23689 6.5887C5.16112 6.90135 5.17293 7.22883 5.27103 7.5352L4.51134 8.29489C4.29816 7.89658 4.18693 7.45166 4.18759 6.99989V6.99989Z" fill="#422619"/>
<path d="M13.7218 6.59678C13.1718 5.43845 12.5172 4.49391 11.7579 3.76318L9.5057 6.01553C9.69554 6.51181 9.73762 7.05244 9.62685 7.57211C9.51608 8.09178 9.2572 8.56826 8.88148 8.94398C8.50576 9.3197 8.02928 9.57858 7.50961 9.68935C6.98994 9.80013 6.44931 9.75804 5.95304 9.5682L4.04272 11.4785C4.92897 11.8886 5.9147 12.0937 6.99991 12.0937C10.003 12.0937 12.2437 10.5296 13.7218 7.40147C13.7812 7.27567 13.812 7.13826 13.812 6.99913C13.812 6.85999 13.7812 6.72259 13.7218 6.59678Z" fill="#422619"/>
</svg>
